<?xml version="1.0" encoding="UTF-8" standalone="no"?>
<svg width="1024px" height="1024px" viewBox="0 0 1024 1024" version="1.1" xmlns="http://www.w3.org/2000/svg" xmlns:xlink="http://www.w3.org/1999/xlink">
    <!-- Generator: Sketch 43.2 (39069) - http://www.bohemiancoding.com/sketch -->
    <title>logo_BTCTool</title>
    <desc>Created with Sketch.</desc>
    <defs>
        <path d="M0,844.00256 C0,943.412401 80.5919031,1024 179.99744,1024 L844.00256,1024 C943.412401,1024 1024,943.408097 1024,844.00256 L1024,179.99744 C1024,80.5875988 943.408097,0 844.00256,0 L179.99744,0 C80.5875988,0 0,80.5919031 0,179.99744 L0,844.00256 Z" id="path-1"></path>
        <polygon id="path-3" points="0.212928685 0.354381783 39.0241 0.354381783 39.0241 149.091558 0.212928685 149.091558 0.212928685 0.354381783"></polygon>
        <polygon id="path-5" points="0.212058167 0.354381783 36.1487793 0.354381783 36.1487793 41.1039225 0.212058167 41.1039225 0.212058167 0.354381783"></polygon>
    </defs>
    <g id="APP" stroke="none" stroke-width="1" fill="none" fill-rule="evenodd">
        <g id="logo_BTCTool">
            <g id="Page-1">
                <mask id="mask-2" fill="white">
                    <use xlink:href="#path-1"></use>
                </mask>
                <use id="Fill-1" fill="#26ABE2" xlink:href="#path-1"></use>
                <rect id="Rectangle" fill="#7ED321" mask="url(#mask-2)" x="-2" y="870" width="1024" height="154"></rect>
                <g id="Group-32" mask="url(#mask-2)">
                    <g transform="translate(125.000000, 315.000000)">
                        <path d="M256.5676,72.0248 L338.0156,72.0248 L338.0156,278.6568 L386.0956,278.6568 C401.0796,278.6568 413.3636,266.6448 413.6716,251.7328 L413.6716,72.0248 L468.0596,72.0248 C483.0476,72.0248 495.1876,60.0128 495.4956,45.1008 L495.4956,5.7488 L284.0036,5.7488 C269.0156,5.7488 256.8756,17.7608 256.5676,32.6728 L256.5676,72.0248 Z" id="Fill-2" fill="#FFFFFF"></path>
                        <path d="M712.0976,181.9232 C695.7336,201.8632 678.9376,215.0712 650.4856,215.0712 C612.2936,215.0712 585.3736,183.1112 585.3736,142.1752 L585.3736,141.3912 C585.3736,101.6472 612.2936,68.9032 650.4856,68.9032 C666.2216,68.9032 678.9736,73.5912 690.0416,81.4792 L690.0536,81.4632 C706.0736,93.0232 718.4816,94.4112 730.4576,85.1392 L767.0296,56.8392 C742.9216,23.6712 706.9736,0.2512 651.2696,0.2512 C568.6336,0.2512 507.7936,62.6392 507.7936,142.1752 L507.7936,142.9432 C507.7936,224.4592 570.4896,284.1392 648.5296,284.1392 C708.5856,284.1392 743.2896,257.9712 769.0016,222.4992 L712.0976,181.9232 Z" id="Fill-4" fill="#FFFFFF"></path>
                        <path d="M169.3868,192.85 C169.3868,208.858 156.5348,217.826 133.1668,217.826 L74.6668,217.826 L74.6668,167.554 L132.3388,167.554 C157.6748,167.554 169.3868,177.254 169.3868,192.07 L169.3868,192.85 Z M74.6668,66.522 L124.1548,66.522 C146.3908,66.522 158.4588,74.718 158.4588,89.946 L158.4588,90.718 C158.4588,106.726 145.2508,114.514 122.1828,114.514 L74.6668,114.514 L74.6668,66.522 Z M190.8388,135.954 C214.9908,125.434 232.9548,106.726 232.9548,75.134 L232.9548,74.346 C232.9548,55.638 226.2868,41.194 215.4028,29.89 C200.2748,15.19 177.8628,6.726 146.4948,5.838 L146.4948,5.75 L72.4028,5.75 L0.9988,5.75 L0.9988,251.222 C0.9988,266.206 13.0108,278.35 27.9228,278.658 L28.9708,278.658 L28.9708,278.594 L146.4948,278.594 C208.7028,277.222 245.0268,249.054 245.0268,203.418 L245.0268,202.646 C245.0268,165.598 223.9468,146.85 190.8388,135.954 L190.8388,135.954 Z" id="Fill-6" fill="#FFFFFF"></path>
                        <g id="Page-1" stroke-width="1" fill="none" transform="translate(334.000000, 312.000000)">
                            <path d="M186.246092,116.598607 C189.768208,116.598607 192.952562,115.957926 195.797415,114.678311 C198.642267,113.398696 201.046638,111.647736 203.010526,109.425431 C204.974415,107.203125 206.497821,104.608981 207.584227,101.644743 C208.665411,98.6805051 209.210355,95.5835923 209.210355,92.3487675 L209.210355,91.9437597 C209.210355,88.5762599 208.63059,85.411264 207.481506,82.448772 C206.328941,79.4845342 204.704554,76.888644 202.604865,74.6663385 C200.503435,72.4440331 198.032905,70.6616498 195.188052,69.3122059 C192.3432,67.9662534 189.225004,67.2906586 185.840431,67.2906586 C182.316574,67.2906586 179.133961,67.9313389 176.289108,69.2092082 C173.445996,70.4905689 171.039885,72.2450206 169.075996,74.4673261 C167.112108,76.6878858 165.586961,79.2820303 164.504036,82.2480138 C163.419371,85.2105059 162.877909,88.3091643 162.877909,91.5404977 L162.877909,91.9437597 C162.877909,95.3130053 163.452451,98.4814926 164.605016,101.443985 C165.755841,104.408222 167.380227,106.998875 169.481658,109.221181 C171.581347,111.443486 174.055359,113.229361 176.900212,114.577059 C179.745064,115.926503 182.859777,116.598607 186.246092,116.598607 M185.840431,149.604993 C177.03253,149.604993 168.940196,148.108908 161.556463,145.123722 C154.172729,142.136789 147.770941,138.027357 142.354578,132.795425 C136.936475,127.56873 132.735355,121.488377 129.756443,114.559602 C126.775789,107.632573 125.285463,100.230707 125.285463,92.3522589 L125.285463,91.9437597 C125.285463,84.068803 126.808869,76.630277 129.857423,69.6334189 C132.905976,62.6400523 137.138435,56.5265301 142.558279,51.2963438 C147.976383,46.0696489 154.411251,41.9235566 161.862885,38.8685413 C169.311036,35.8117802 177.438192,34.2825268 186.246092,34.2825268 C195.052251,34.2825268 203.144586,35.8117802 210.53006,38.8685413 C217.910311,41.9235566 224.3121,46.0347345 229.733686,51.1950919 C235.150048,56.3589407 239.349427,62.4008882 242.331821,69.3279174 C245.308992,76.2566922 246.80106,83.6603038 246.80106,91.5370063 L246.80106,91.9437597 C246.80106,99.8239537 245.277654,107.260734 242.2291,114.255846 C239.180546,121.252704 234.946347,127.364481 229.528243,132.592921 C224.108399,137.823108 217.67353,141.965709 210.225379,145.020724 C202.772004,148.077485 194.644849,149.604993 185.840431,149.604993" id="Fill-1" fill="#FFFFFF"></path>
                            <path d="M319.545891,116.598607 C323.066265,116.598607 326.252361,115.957926 329.097214,114.678311 C331.942066,113.398696 334.346437,111.647736 336.310325,109.425431 C338.274214,107.203125 339.79762,104.608981 340.884026,101.644743 C341.96521,98.6805051 342.508413,95.5835923 342.508413,92.3487675 L342.508413,91.9437597 C342.508413,88.5762599 341.930389,85.411264 340.781305,82.448772 C339.628739,79.4845342 338.004353,76.888644 335.902923,74.6663385 C333.801492,72.4440331 331.332704,70.6616498 328.487851,69.3122059 C325.642998,67.9662534 322.524803,67.2906586 319.140229,67.2906586 C315.616373,67.2906586 312.433759,67.9313389 309.588907,69.2092082 C306.744054,70.4905689 304.339684,72.2450206 302.375795,74.4673261 C300.411907,76.6878858 298.886759,79.2820303 297.803835,82.2480138 C296.71917,85.2105059 296.177708,88.3091643 296.177708,91.5404977 L296.177708,91.9437597 C296.177708,95.3130053 296.752249,98.4814926 297.904815,101.443985 C299.053899,104.408222 300.680026,106.998875 302.781457,109.221181 C304.881146,111.443486 307.355158,113.229361 310.20001,114.577059 C313.044863,115.926503 316.159576,116.598607 319.545891,116.598607 M319.140229,149.604993 C310.332329,149.604993 302.239994,148.108908 294.856261,145.123722 C287.472528,142.136789 281.070739,138.027357 275.654377,132.795425 C270.236273,127.56873 266.035154,121.488377 263.056241,114.559602 C260.075588,107.632573 258.585261,100.230707 258.585261,92.3522589 L258.585261,91.9437597 C258.585261,84.068803 260.108668,76.630277 263.157222,69.6334189 C266.205775,62.6400523 270.438233,56.5265301 275.858078,51.2963438 C281.274441,46.0696489 287.71105,41.9235566 295.162684,38.8685413 C302.610835,35.8117802 310.73799,34.2825268 319.545891,34.2825268 C328.35205,34.2825268 336.444385,35.8117802 343.829859,38.8685413 C351.21011,41.9235566 357.611899,46.0347345 363.031743,51.1950919 C368.449847,56.3589407 372.649225,62.4008882 375.63162,69.3279174 C378.608791,76.2566922 380.100859,83.6603038 380.100859,91.5370063 L380.100859,91.9437597 C380.100859,99.8239537 378.577453,107.260734 375.528899,114.255846 C372.480345,121.252704 368.246146,127.364481 362.828042,132.592921 C357.408198,137.823108 350.973329,141.965709 343.523437,145.020724 C336.071803,148.077485 327.944648,149.604993 319.140229,149.604993" id="Fill-3" fill="#FFFFFF"></path>
                            <g id="Group-7" transform="translate(396.956175, 0.513783)">
                                <mask id="mask-4" fill="white">
                                    <use xlink:href="#path-3"></use>
                                </mask>
                                <g id="Clip-6"></g>
                                <polyline id="Fill-5" fill="#FFFFFF" mask="url(#mask-4)" points="19.6185143 149.091558 0.212928685 149.091558 0.212928685 23.376803 17.1375382 16.2734559 19.6185143 0.354207211 39.0241 0.354207211 39.0241 118.731688"></polyline>
                            </g>
                            <path d="M435.980972,108.855277 L435.980972,135.639906 C435.980972,143.352511 429.744581,149.605691 422.052685,149.605691 L400.044251,149.605691" id="Fill-8" fill="#FFFFFF"></path>
                            <g id="Group-12" transform="translate(396.956175, 0.513783)">
                                <mask id="mask-6" fill="white">
                                    <use xlink:href="#path-5"></use>
                                </mask>
                                <g id="Clip-11"></g>
                                <path d="M0.212058167,41.1039225 L0.212058167,14.3192935 C0.212058167,6.60668895 6.44844861,0.353508921 14.140345,0.353508921 L36.1487793,0.353508921" id="Fill-10" fill="#FFFFFF" mask="url(#mask-6)"></path>
                            </g>
                            <path d="M0,25.808787 L0,45.7798589 L41.224247,45.7798589 L41.224247,150.645444 L65.5587052,150.645444 C73.1426574,150.645444 79.3598964,144.549379 79.5148486,136.981669 L79.5148486,45.7798589 L107.044108,45.7798589 C114.629801,45.7798589 120.773916,39.683794 120.93061,32.1160844 L120.93061,12.1450125 L13.886502,12.1450125 C6.29906773,12.1450125 0.156693227,18.2410775 0,25.808787" id="Fill-13" fill="#FFFFFF"></path>
                        </g>
                    </g>
                </g>
            </g>
        </g>
    </g>
</svg>